<?xml version="1.0" encoding="UTF-8"?>
<!DOCTYPE svg PUBLIC "-//W3C//DTD SVG 1.1//EN" "http://www.w3.org/Graphics/SVG/1.1/DTD/svg11.dtd">
<!-- Creator: CorelDRAW SE 2024 -->
<svg xmlns="http://www.w3.org/2000/svg" xml:space="preserve" width="780px" height="780px" version="1.1"
    style="shape-rendering:geometricPrecision; text-rendering:geometricPrecision; image-rendering:optimizeQuality; fill-rule:evenodd; clip-rule:evenodd"
    viewBox="0 0 780 780" xmlns:xlink="http://www.w3.org/1999/xlink"
    xmlns:xodm="http://www.corel.com/coreldraw/odm/2003">
    <defs>
        <style type="text/css">
            <![CDATA[
            .fil0 {
                fill: white
            }

            .fil1 {
                fill: transprent;
                fill-rule: nonzero
            }
            ]]>
        </style>
    </defs>
    <g id="Vrstva_x0020_1">
        <metadata id="CorelCorpID_0Corel-Layer" />
        <g id="_1597469188096">
            <ellipse class="fil0" cx="390.151" cy="388.009" rx="388.402" ry="384.009" />
            <path class="fil1"
                d="M450.528 396.665c0,0 0.032,0.059 0.477,0.021 0.14,-0.247 0.28,-0.494 0.326,-0.825 0,0 0.087,0.093 0.535,0.001 0.087,-0.26 0.174,-0.519 0.334,-0.831 0,0 -0.048,-0.076 0.224,-0.285 0.186,-0.135 0.354,-0.289 0.551,-0.431 0,0 0.038,-0.042 0.484,0.089 0.179,-0.235 0.358,-0.47 0.539,-0.752 0,0 0.047,0.006 0.553,-0.129 1.092,-1.112 2.185,-2.224 3.271,-3.348 0,0 0.011,0.007 0.533,-0.15 2.105,-2.051 4.21,-4.102 6.732,-6.255 0.284,-0.309 0.567,-0.619 1.376,-1.029 1.232,-1.259 2.466,-2.518 3.578,-3.913 0,0 0.101,0.152 0.542,0.046 0.116,-0.267 0.231,-0.534 0.278,-0.818 0,0 0.032,0.063 0.471,-0.05 0.158,-0.245 0.317,-0.489 0.824,-0.802 0.234,-0.097 0.392,-0.266 0.999,-0.625 0.712,-0.802 1.425,-1.603 2.533,-2.55 0.264,-0.316 0.528,-0.632 1.318,-1.077 2.307,-2.343 4.613,-4.687 6.815,-7.084 0,0 0.086,0.081 0.562,-0.065 0.42,-0.5 0.84,-0.999 1.614,-1.572 0.23,-0.126 0.359,-0.32 0.887,-0.734 0.671,-0.778 1.34,-1.557 1.891,-2.422 0,0 0.086,0.12 0.534,0.049 0.263,-0.342 0.527,-0.684 1.232,-1.287 0.789,-0.871 1.578,-1.743 2.884,-2.771 1.075,-1.151 2.148,-2.303 3.478,-3.571 0,0 0.092,-0.266 0.611,-0.477 2.802,-2.963 5.604,-5.925 8.217,-9.09 0,0 0.199,0.193 0.661,0.117 0.193,-0.233 0.386,-0.466 0.84,-0.733 0,0 0.131,-0.228 0.785,-0.217 4.148,0.272 3.918,3.626 3.938,6.24 0.072,9.57 -0.158,19.143 -0.401,29.302 0.034,0.597 0.068,1.193 -0.105,2.514 0.017,3.005 0.034,6.011 -0.08,9.73 0.019,1.935 0.038,3.869 -0.173,6.421 -0.207,18.109 -0.479,36.219 -0.58,54.329 -0.03,5.508 0.413,11.017 0.536,17.161 0.061,0.85 0.123,1.7 -0.023,2.983 0.102,0.937 0.205,1.874 0.231,3.488 0.057,1.132 0.114,2.263 0.012,4.125 0.294,3.266 0.589,6.533 0.794,10.415 0.062,0.618 0.124,1.235 0.04,2.549 1.098,6.792 2.197,13.584 3.228,20.921 0.07,0.357 0.141,0.715 0.1,1.725 2.308,6.993 3.869,14.353 7.083,20.9 6.158,12.544 21.486,16.575 32.625,9.352 0,0 0.009,-0.042 0.558,-0.068 1.784,-1.794 3.568,-3.588 5.235,-5.559 0,0 0.141,0.158 0.555,-0.012 0.063,-0.282 0.126,-0.564 0.139,-0.864 0,0 0.044,0.032 0.496,-0.238 0.453,-0.932 0.907,-1.863 1.238,-2.918 0,0 0.145,0.097 0.618,-0.216 1.5,-5.127 2.999,-10.254 4.767,-15.86 0.012,-0.362 0.024,-0.725 0.317,-1.688 0.591,-12.265 1.183,-24.531 2.005,-37.448 0.019,-1.382 0.038,-2.764 0.261,-4.863 0.171,-3.768 0.347,-7.537 0.513,-11.306 0.622,-14.126 1.239,-28.252 1.979,-42.923 -0.023,-0.369 -0.047,-0.738 0.17,-1.694 0.077,-1.976 0.153,-3.952 0.404,-6.505 -0.007,-0.599 -0.014,-1.199 0.189,-2.501 0.529,-10.587 1.059,-21.175 1.704,-32.31 -0.026,-0.371 -0.052,-0.743 0.17,-1.724 0.356,-4.982 0.797,-9.959 1.05,-14.945 0.671,-13.203 1.26,-26.411 2.002,-40.264 -0.024,-0.875 -0.047,-1.75 0.161,-3.244 -0.09,-12.836 0.374,-25.706 -0.431,-38.497 -0.757,-12.028 -3.718,-23.712 -10.133,-34.526 0,0 -0.217,-0.217 -0.236,-0.789 -2.351,-3.444 -4.701,-6.888 -7.19,-10.855 -2.085,-2.47 -3.916,-5.228 -6.311,-7.348 -4.219,-3.732 -8.54,-7.456 -13.271,-10.471 -4.534,-2.891 -6.745,-2.229 -10.16,1.678 -3.286,3.759 -6.538,7.563 -9.581,11.519 -29.352,38.161 -60.79,74.478 -95.371,108.019 -4.103,3.979 -8.359,7.801 -12.749,11.887 -9.228,-20.963 -18.188,-41.32 -27.137,-62.275 -3.623,-8.14 -7.178,-16.31 -10.885,-24.41 -4.652,-10.166 -9.428,-20.275 -14.156,-30.721 0,0 -0.199,-0.24 -0.162,-0.778 -0.534,-0.902 -1.067,-1.805 -1.593,-2.718 0,0 -0.012,0.002 -0.023,-0.595 -1.572,-3.126 -3.143,-6.251 -4.741,-9.705 0,0 -0.23,-0.237 -0.246,-0.819 -1.252,-2.533 -2.405,-5.12 -3.775,-7.587 -5.08,-9.143 -9.293,-18.853 -17.099,-26.586 0,0 -0.271,-0.129 -0.45,-0.627 -2.038,-1.753 -4.077,-3.507 -6.141,-5.227 0,0 0.035,-0.024 -0.132,-0.549 -3.391,-2.068 -6.783,-4.136 -10.331,-6.001 0,0 0.135,-0.218 -0.216,-0.662 -11.378,-5.541 -23.223,-5.862 -35.088,-2.332 -8.076,2.403 -14.866,6.952 -18.387,15.244 0,0 0.028,0.07 -0.443,0.462 -0.055,7.687 -0.109,15.374 -0.246,23.77 0.173,1.642 0.347,3.285 0.317,5.616 0.417,9.521 0.834,19.042 1.155,29.32 0.032,4.091 0.063,8.182 -0.112,12.898 -0.438,10.608 -0.876,21.218 -1.451,32.431 0.013,0.618 0.025,1.236 -0.202,2.461 -2.751,28.092 -7.581,55.846 -13.715,83.379 -2.809,12.612 -5.87,25.168 -8.998,38.008 0,0 0.023,0.315 -0.435,0.717 -5.907,19.001 -11.582,38.078 -17.802,56.977 -4.283,13.016 -9.321,25.786 -14.336,39.022 -0.149,0.442 -0.297,0.883 -0.798,1.764 -0.622,1.485 -1.254,2.966 -1.864,4.456 -4.418,10.798 -8.831,21.597 -13.461,32.592 0,0 -0.026,0.292 -0.495,0.639 -1.143,2.962 -2.287,5.923 -3.624,9.06 0,0 0.005,0.261 -0.402,0.618 -0.278,0.846 -0.556,1.692 -0.958,2.579 0,0 0.045,0.122 -0.374,0.48 -2.926,7.535 -6.008,15.014 -8.715,22.626 -1.557,4.377 -0.438,5.765 4.064,4.728 12.066,-2.779 24.169,-5.528 36.006,-9.117 7.273,-2.206 14.084,-5.935 21.456,-9.03 0,0 0.261,-0.243 0.803,-0.273 1.462,-1.002 2.925,-2.003 4.36,-3.029 0,0 0.017,0.032 0.573,-0.04 1.808,-1.48 3.615,-2.96 5.477,-4.453 0,0 0.032,-0.044 0.469,-0.28 0.6,-0.773 1.199,-1.546 1.694,-2.437 0,0 0.128,0.092 0.613,-0.127 0.968,-1.465 1.936,-2.93 2.978,-4.429 0,0 0.02,-0.078 0.446,-0.381 0.882,-1.53 1.765,-3.06 2.62,-4.651 0,0 0.065,0.015 0.497,-0.151 0.069,-0.288 0.138,-0.576 0.411,-0.962 0,0 -0.001,-0.227 0.475,-0.529 2.446,-4.661 4.891,-9.322 7.286,-14.03 0,0 0.051,0.047 0.549,-0.201 3.843,-8.598 7.687,-17.194 11.775,-26.119 0.06,-0.264 0.119,-0.527 0.609,-1.174 0.812,-2.201 1.624,-4.401 2.647,-6.845 0,0 -0.004,-0.323 0.433,-0.698 0.363,-1.298 0.726,-2.596 1.033,-3.917 0,0 0.045,0.041 0.543,-0.247 1.389,-3.993 2.778,-7.987 4.335,-12.308 0,0 0.04,-0.366 0.532,-0.684 3.867,-11.641 8.033,-23.193 11.508,-34.95 2.895,-9.795 4.978,-19.829 7.695,-30.058 0.157,-0.245 0.189,-0.506 0.479,-1.296 3.19,-16.358 6.483,-32.697 9.537,-49.081 2.139,-11.484 3.951,-23.029 6.106,-34.915 0.046,-0.271 0.091,-0.543 0.528,-1.268 0.306,-1.353 0.611,-2.707 0.963,-4.063 0,0 -0.017,-0.044 0.499,-0.196 1.186,0.057 2.373,0.114 3.551,0.202 0,0 0.029,-0.017 0.211,0.505 1.492,2.092 2.984,4.185 4.504,6.584 0,0 0.224,0.213 0.255,0.785 1.508,2.66 3.017,5.319 4.553,8.232 0,0 0.214,0.137 0.205,0.629 0.201,0.247 0.401,0.494 0.611,0.989 0,0 0.208,0.137 0.222,0.729 2.414,4.676 4.827,9.352 7.24,14.057 0,0 0.02,0.021 0.009,0.608 3.207,6.329 6.414,12.657 9.791,18.834 0,0 -0.171,0.153 -0.15,0.747 1.348,2.554 2.695,5.108 4.046,7.96 0,0 0.193,0.227 0.161,0.793 0.74,1.295 1.48,2.59 2.225,4.146 0,0 0.21,0.156 0.178,0.657 0.204,0.248 0.407,0.497 0.613,0.995 0,0 0.201,0.147 0.199,0.742 3.746,7.463 7.493,14.926 11.261,22.693 0,0 0.211,0.219 0.196,0.736 0.469,0.69 0.938,1.381 1.566,1.938 0,0 -0.156,0.139 -0.092,0.707 2.716,3.304 5.432,6.609 8.205,9.839 0,0 -0.065,0.069 0.158,0.581 4.927,3.97 10.462,4.572 16.379,2.909 7.298,-2.051 13.24,-6.346 19.008,-11.478 0,0 0.163,-0.255 0.685,-0.358 1.447,-1.279 2.896,-2.558 4.365,-3.825 0,0 -0.006,-0.024 0.54,-0.117 4.533,-3.964 9.066,-7.928 14.005,-12.042 0.278,-0.324 0.556,-0.648 1.248,-0.991 0.152,-0.216 0.304,-0.433 0.982,-0.877 0.115,-0.151 0.231,-0.302 0.468,-0.288 0,0 0.161,-0.129 0.161,-0.129 0,0 -0.117,-0.169 0.304,-0.434 0.065,-0.151 0.131,-0.303 0.622,-0.564 0.159,-0.232 0.318,-0.465 0.397,-0.766 0,0 0.048,0.093 0.578,0.013 1.13,-1.103 2.261,-2.205 3.426,-3.29 0,0 -0.012,-0.037 0.411,-0.087 0.153,-0.227 0.306,-0.454 0.413,-0.732z" />
        </g>
    </g>
</svg>